<?xml version="1.0" standalone="no"?>
<!DOCTYPE svg PUBLIC "-//W3C//DTD SVG 20010904//EN"
 "http://www.w3.org/TR/2001/REC-SVG-20010904/DTD/svg10.dtd">
<svg version="1.0" xmlns="http://www.w3.org/2000/svg"
 width="500.000000pt" height="250.000000pt" viewBox="0 0 500.000000 250.000000"
 preserveAspectRatio="xMidYMid meet">

<g transform="translate(0.000000,250.000000) scale(0.100000,-0.100000)"
fill="#000000" stroke="none">
<path d="M3210 1788 c-25 -11 -56 -24 -69 -29 l-24 -10 24 -25 c22 -23 24 -35
27 -141 4 -109 3 -115 -15 -108 -10 5 -49 10 -88 12 -230 15 -380 -220 -267
-420 75 -134 217 -155 341 -52 l31 27 0 -35 c0 -42 10 -47 93 -47 l60 0 -24
26 -24 26 -3 399 c-2 219 -6 399 -10 398 -4 0 -27 -10 -52 -21z m-141 -333
c39 -20 78 -69 91 -113 5 -20 10 -89 10 -154 l0 -116 -30 -26 c-63 -53 -156
-43 -209 21 -64 78 -87 246 -45 328 34 66 118 94 183 60z"/>
<path d="M590 1696 c0 -3 13 -18 29 -34 40 -39 43 -69 39 -390 -3 -247 -5
-275 -20 -286 -30 -22 -21 -26 52 -26 68 0 91 12 50 25 -11 4 -28 21 -38 38
-15 28 -17 68 -20 302 l-3 270 133 -217 c73 -120 138 -218 144 -218 7 0 63 89
125 198 62 108 119 206 126 217 12 17 13 -24 11 -278 -3 -271 -5 -300 -20
-311 -10 -7 -18 -16 -18 -20 0 -3 46 -6 102 -6 l101 0 -24 26 -24 26 0 291 c0
307 5 345 46 368 38 20 19 30 -53 27 l-73 -3 -120 -207 c-66 -114 -122 -209
-125 -212 -3 -2 -64 92 -135 210 l-129 214 -78 0 c-43 0 -78 -2 -78 -4z"/>
<path d="M1675 1477 c-85 -34 -146 -97 -173 -176 -35 -101 1 -234 79 -291 118
-85 279 -76 379 21 60 58 85 118 84 204 -1 105 -47 180 -139 228 -49 25 -183
33 -230 14z m126 -30 c113 -76 174 -283 117 -397 -71 -139 -243 -79 -303 105
-39 121 -28 224 30 282 27 27 40 33 78 33 29 0 55 -8 78 -23z"/>
<path d="M2304 1474 c-104 -37 -177 -145 -177 -262 0 -109 44 -182 137 -229
117 -59 242 -39 336 56 63 64 80 106 80 200 0 75 -19 124 -68 174 -68 70 -206
97 -308 61z m133 -24 c78 -47 136 -172 137 -295 1 -96 -19 -140 -77 -168 -85
-42 -188 22 -238 148 -33 85 -34 224 -2 276 13 20 33 41 45 47 37 17 100 14
135 -8z"/>
<path d="M3525 1466 c-49 -25 -129 -96 -109 -96 6 0 19 9 30 21 49 54 153 76
214 44 35 -18 62 -66 58 -103 -3 -24 -12 -28 -108 -57 -184 -55 -231 -90 -237
-177 -5 -65 21 -112 72 -134 96 -40 191 10 249 129 l25 52 1 -67 c0 -37 4 -78
10 -92 9 -24 14 -26 75 -26 37 0 65 4 65 10 0 6 -4 10 -9 10 -19 0 -25 42 -31
215 -4 156 -8 185 -25 214 -35 59 -67 76 -153 79 -66 3 -84 0 -127 -22z m192
-235 c-6 -72 -49 -156 -92 -183 -63 -38 -136 -15 -153 47 -21 76 24 127 148
168 107 36 104 37 97 -32z"/>
<path d="M3890 1483 c0 -4 14 -21 31 -39 20 -20 64 -109 129 -259 l99 -229
-26 -48 c-38 -70 -41 -71 -122 -59 -38 6 -78 8 -88 4 -55 -19 -73 -78 -27 -89
51 -13 123 2 162 33 61 49 105 126 213 377 76 177 111 247 136 271 18 18 33
35 33 39 0 3 -25 6 -55 6 -58 0 -63 -4 -40 -33 11 -16 11 -26 1 -60 -16 -54
-116 -286 -125 -292 -8 -5 -151 316 -151 339 0 8 5 18 10 21 6 4 8 11 5 16 -7
10 -185 13 -185 2z"/>
</g>
</svg>
